<svg width="480" height="420" viewBox="0 0 480 420" xmlns="http://www.w3.org/2000/svg">
  <defs>
    <linearGradient id="cardGradient" x1="0%" y1="0%" x2="100%" y2="100%">
      <stop offset="0%" stop-color="#DBE3F0" />
      <stop offset="100%" stop-color="#F9F7F8" />
    </linearGradient>
    <linearGradient id="accentGradient" x1="0%" y1="0%" x2="100%" y2="100%">
      <stop offset="0%" stop-color="#3D73B1" />
      <stop offset="100%" stop-color="#092A4D" />
    </linearGradient>
    <filter id="shadow" x="-20%" y="-20%" width="140%" height="140%">
      <feOffset dy="12" in="SourceAlpha" result="offset" />
      <feGaussianBlur in="offset" stdDeviation="18" result="blur" />
      <feColorMatrix in="blur" type="matrix" values="0 0 0 0 0.035 0 0 0 0 0.165 0 0 0 0 0.302 0 0 0 0.16 0" />
      <feBlend in="SourceGraphic" />
    </filter>
  </defs>
  <rect x="0" y="0" width="480" height="420" fill="none" />
  <g filter="url(#shadow)">
    <rect x="70" y="60" width="340" height="240" rx="32" fill="url(#cardGradient)" />
  </g>
  <rect x="110" y="100" width="180" height="18" rx="9" fill="#092A4D" opacity="0.18" />
  <rect x="110" y="134" width="260" height="18" rx="9" fill="#092A4D" opacity="0.12" />
  <rect x="110" y="168" width="220" height="18" rx="9" fill="#092A4D" opacity="0.12" />
  <rect x="110" y="202" width="200" height="18" rx="9" fill="#092A4D" opacity="0.12" />
  <rect x="110" y="236" width="240" height="18" rx="9" fill="#092A4D" opacity="0.12" />
  <rect x="110" y="270" width="150" height="18" rx="9" fill="#092A4D" opacity="0.12" />
  <g transform="translate(270 70)">
    <rect x="0" y="0" width="120" height="120" rx="24" fill="url(#accentGradient)" opacity="0.9" />
    <rect x="20" y="24" width="80" height="12" rx="6" fill="#F9F7F8" opacity="0.85" />
    <rect x="20" y="48" width="72" height="12" rx="6" fill="#F9F7F8" opacity="0.65" />
    <circle cx="40" cy="84" r="10" fill="#DBE3F0" opacity="0.95" />
    <circle cx="72" cy="84" r="10" fill="#DBE3F0" opacity="0.55" />
  </g>
  <g transform="translate(140 320)">
    <rect x="0" y="0" width="120" height="60" rx="20" fill="#3D73B1" opacity="0.72" />
    <circle cx="94" cy="32" r="26" fill="#F9F7F8" opacity="0.9" />
    <path d="M104 32l-18 10V22z" fill="#3D73B1" opacity="0.9" />
  </g>
  <g opacity="0.35" fill="#3D73B1">
    <circle cx="68" cy="122" r="6" />
    <circle cx="420" cy="142" r="8" />
    <circle cx="60" cy="270" r="5" />
    <circle cx="414" cy="298" r="10" />
    <circle cx="232" cy="52" r="6" />
  </g>
</svg>